<svg data-v-423bf9ae="" xmlns="http://www.w3.org/2000/svg" viewBox="0 0 402.0789026092459 163" class="iconAbove"><!----><!----><!----><g data-v-423bf9ae="" id="9540182f-ac52-4d18-bcec-ee6562972d37" fill="#FFFFFF" transform="matrix(3.7570446198971705,0,0,3.7570446198971705,-1.3525402331534906,87.63368979236401)"><path d="M0.69 17.09L0.69 16.90L0.69 16.90Q2.25 15.37 2.67 12.80L2.67 12.80L2.67 12.80Q2.88 11.51 2.88 8.11L2.88 8.11L2.88 8.11Q2.35 8.11 1.83 8.65L1.83 8.65L1.83 8.65Q1.71 8.79 1.05 9.67L1.05 9.67L1.05 9.67Q0.64 10.22 0.36 10.22L0.36 10.22L0.36 10.22Q0.36 8.61 1.11 7.64L1.11 7.64L1.11 7.64Q1.48 7.15 3.42 6.05L3.42 6.05L3.42 6.05Q5.36 4.96 5.91 4.96L5.91 4.96L5.91 4.96Q5.91 5.14 5.76 5.46L5.76 5.46L5.76 5.46Q5.61 5.78 5.61 5.96L5.61 5.96L5.61 5.96Q5.91 5.96 6.48 5.82L6.48 5.82L6.48 5.82Q7.04 5.68 7.34 5.68L7.34 5.68L7.34 5.68Q8.22 5.68 8.80 6.23L8.80 6.23L8.80 6.23Q9.38 6.78 9.38 7.66L9.38 7.66L9.38 7.66Q9.38 8.61 8.79 9.30L8.79 9.30L8.79 9.30Q8.50 9.63 7.41 10.46L7.41 10.46L7.41 10.46Q7.29 10.54 7.27 10.60L7.27 10.60L7.69 11.44L10.91 15.78L10.91 16.23L10.91 16.23Q8.43 16.23 6.15 13.26L6.15 13.26L6.15 13.26Q6.03 13.09 5.73 12.65L5.73 12.65L5.73 12.65Q5.42 12.21 5.17 12.00L5.17 12.00L4.96 12.14L4.96 14.38L4.96 14.38Q4.96 14.78 2.97 15.96L2.97 15.96L2.97 15.96Q1.06 17.09 0.69 17.09L0.69 17.09ZM5.57 6.94L5.57 6.94L5.57 6.94Q5.17 6.94 5.17 7.66L5.17 7.66L5.17 10.77L5.17 10.77Q5.95 10.77 6.44 9.94L6.44 9.94L6.44 9.94Q6.86 9.24 6.86 8.40L6.86 8.40L6.86 8.40Q6.86 7.84 6.49 7.39L6.49 7.39L6.49 7.39Q6.12 6.94 5.57 6.94ZM12.45 14.32L12.45 10.99L12.45 10.99Q12.26 10.99 11.91 11.14L11.91 11.14L11.91 11.14Q11.55 11.28 11.37 11.28L11.37 11.28L11.37 11.28Q11.37 10.40 12.85 9.45L12.85 9.45L12.85 9.45Q14.22 8.57 15.13 8.57L15.13 8.57L15.13 8.57Q15.13 8.86 14.69 9.84L14.69 9.84L14.69 10.36L14.69 10.36Q14.69 10.37 14.67 10.72L14.67 10.72L14.67 10.72Q14.67 10.81 14.67 10.89L14.67 10.89L14.67 10.89Q14.67 11.76 14.69 11.94L14.69 11.94L14.69 11.94Q14.73 12.50 14.83 12.50L14.83 12.50L15.11 12.50L16.65 11.52L16.65 11.52Q16.67 11.51 16.72 11.51L16.72 11.51L16.72 11.51Q16.94 11.51 16.94 12.17L16.94 12.17L16.94 12.17Q16.94 12.98 15.62 14.22L15.62 14.22L15.62 14.22Q14.29 15.46 13.47 15.46L13.47 15.46L13.47 15.46Q12.45 15.46 12.45 14.32L12.45 14.32ZM13.44 6.48L13.44 6.48L13.44 6.20L13.44 6.20Q13.44 6.10 13.43 6.01L13.43 6.01L13.43 5.92L13.43 5.92Q13.40 5.88 13.16 5.74L13.16 5.74L13.16 5.74Q12.99 5.64 12.99 5.50L12.99 5.50L12.99 5.50Q12.99 5.53 13.01 5.36L13.01 5.36L14.10 4.59L14.10 4.59Q14.88 4.09 15.40 4.09L15.40 4.09L15.40 4.09Q15.67 4.09 15.67 4.45L15.67 4.45L15.67 4.45Q15.67 5.74 13.99 7.60L13.99 7.60L13.99 7.60Q13.23 8.44 13.15 8.44L13.15 8.44L12.82 8.44L12.82 8.44Q12.82 8.15 13.13 7.48L13.13 7.48L13.13 7.48Q13.44 6.82 13.44 6.48ZM17.05 10.74L17.05 10.74L17.05 10.74Q17.05 8.82 18.10 7.13L18.10 7.13L18.10 7.13Q19.12 5.47 20.83 4.52L20.83 4.52L20.83 4.52Q20.87 4.52 20.97 4.51L20.97 4.51L20.97 4.51Q21.07 4.49 21.11 4.49L21.11 4.49L21.11 4.49Q21.56 4.49 21.78 5.05L21.78 5.05L21.78 5.05Q21.95 5.46 21.95 5.99L21.95 5.99L21.95 5.99Q21.95 7.41 21.20 8.69L21.20 8.69L21.20 8.69Q20.73 9.48 19.43 10.96L19.43 10.96L19.43 11.17L19.43 11.17Q19.43 11.69 19.57 12.21L19.57 12.21L19.57 12.21Q19.77 12.94 20.13 12.94L20.13 12.94L20.13 12.94Q20.37 12.94 20.55 12.78L20.55 12.78L20.55 12.78Q21.18 12.24 21.67 11.66L21.67 11.66L21.94 11.66L21.94 11.66Q21.94 12.99 21.25 14.13L21.25 14.13L21.25 14.13Q20.45 15.46 19.15 15.46L19.15 15.46L19.15 15.46Q18.00 15.46 17.43 13.47L17.43 13.47L17.43 13.47Q17.05 12.15 17.05 10.74ZM19.78 6.73L19.78 6.73L19.78 6.73Q19.64 6.73 19.46 7.73L19.46 7.73L19.46 7.73Q19.25 8.88 19.25 9.98L19.25 9.98L19.43 9.98L19.43 9.98Q19.61 9.98 19.82 9.09L19.82 9.09L19.82 9.09Q20.01 8.30 20.01 7.99L20.01 7.99L20.01 7.99Q20.01 7.11 19.85 6.76L19.85 6.76L19.85 6.76Q19.82 6.73 19.78 6.73ZM22.82 12.82L22.82 12.82L22.82 12.82Q22.82 11.07 24.16 9.75L24.16 9.75L24.16 9.75Q25.49 8.43 27.24 8.43L27.24 8.43L27.24 8.43Q27.90 8.43 28.18 8.68L28.18 8.68L28.18 8.68Q28.45 8.93 28.45 9.58L28.45 9.58L28.45 9.58Q28.45 10.50 27.40 11.28L27.40 11.28L27.40 11.28Q26.52 11.82 25.63 12.36L25.63 12.36L25.49 12.50L25.49 12.50Q25.49 12.53 25.48 12.57L25.48 12.57L25.48 12.57Q25.48 12.80 25.80 13.05L25.80 13.05L25.80 13.05Q26.07 13.26 26.33 13.34L26.33 13.34L26.40 13.34L26.40 13.34Q26.82 13.34 27.69 12.69L27.69 12.69L27.69 12.69Q28.56 12.04 28.74 12.04L28.74 12.04L28.74 12.04Q28.74 13.23 27.51 14.34L27.51 14.34L27.51 14.34Q26.28 15.46 25.07 15.46L25.07 15.46L25.07 15.46Q24.02 15.46 23.39 14.64L23.39 14.64L23.39 14.64Q22.82 13.90 22.82 12.82ZM25.35 10.12L25.35 10.12L25.35 10.12Q24.85 10.81 24.85 11.56L24.85 11.56L24.85 11.56Q25.13 11.56 25.53 11.14L25.53 11.14L25.53 11.14Q25.93 10.71 25.93 10.42L25.93 10.42L25.93 10.42Q25.93 10.11 25.56 10.11L25.56 10.11L25.47 10.11L25.47 10.11Q25.37 10.12 25.35 10.12ZM28.76 17.95L28.76 17.95L28.76 17.95Q28.76 17.47 29.19 16.97L29.19 16.97L29.19 16.97Q29.37 16.76 29.83 16.28L29.83 16.28L29.83 16.28Q30.39 15.71 30.45 15.71L30.45 15.71L30.73 15.71L30.73 15.71Q31.75 18.65 33.25 18.65L33.25 18.65L33.25 18.65Q33.80 18.65 34.10 18.17L34.10 18.17L34.10 18.17Q34.37 17.77 34.37 17.18L34.37 17.18L34.37 16.97L34.37 16.97Q34.19 15.29 33.95 13.61L33.95 13.61L33.95 13.61Q33.64 13.82 33.28 14.38L33.28 14.38L33.28 14.38Q32.86 15.02 32.68 15.20L32.68 15.20L32.68 15.20Q32.28 15.58 31.74 15.58L31.74 15.58L31.74 15.58Q31.22 15.58 30.93 14.91L30.93 14.91L30.93 14.91Q30.72 14.42 30.72 13.79L30.72 13.79L30.72 13.79Q30.72 13.31 30.77 12.38L30.77 12.38L30.77 12.38Q30.83 11.45 30.83 10.98L30.83 10.98L30.83 10.98Q30.53 10.98 29.47 11.93L29.47 11.93L29.26 11.93L29.26 11.93Q29.26 10.95 30.84 9.83L30.84 9.83L30.84 9.83Q32.34 8.76 33.43 8.76L33.43 8.76L33.43 8.76Q33.43 9.11 33.19 9.87L33.19 9.87L33.19 9.87Q32.96 10.63 32.96 11.02L32.96 11.02L32.96 11.82L32.96 11.82Q32.94 11.89 32.94 11.83L32.94 11.83L32.94 11.83Q32.98 12.52 33.25 12.63L33.25 12.63L33.25 12.63Q33.80 12.24 33.94 11.33L33.94 11.33L33.94 11.33Q34.09 10.30 34.37 9.97L34.37 9.97L34.37 9.97Q36.54 8.41 37.49 8.41L37.49 8.41L37.49 8.41Q37.49 8.62 37.17 8.99L37.17 8.99L37.17 8.99Q36.79 9.41 36.75 9.55L36.75 9.55L36.75 9.55Q36.46 10.46 36.46 11.49L36.46 11.49L36.46 11.49Q36.46 12.04 36.54 13.11L36.54 13.11L36.54 13.11Q36.62 14.18 36.62 14.73L36.62 14.73L36.62 14.73Q36.62 16.38 36.47 17.25L36.47 17.25L36.47 17.25Q36.41 17.42 36.33 17.53L36.33 17.53L36.33 17.53Q35.38 18.77 34.54 19.33L34.54 19.33L34.54 19.33Q33.45 20.06 32.12 20.06L32.12 20.06L32.12 20.06Q31.18 20.06 30.06 19.49L30.06 19.49L30.06 19.49Q28.76 18.82 28.76 17.95ZM43.89 11.20L43.89 11.20L43.89 11.20Q43.89 9.13 43.88 8.90L43.88 8.90L43.88 8.90Q43.86 8.68 43.58 8.03L43.58 8.03L43.58 8.03Q43.30 7.38 43.30 7.28L43.30 7.28L43.30 7.28Q43.30 6.97 44.80 6.29L44.80 6.29L44.80 6.29Q46.21 5.64 46.65 5.64L46.65 5.64L46.65 5.64Q46.65 7.69 48.22 10.43L48.22 10.43L48.22 10.43Q48.33 10.63 48.50 10.71L48.50 10.71L48.50 10.71Q48.61 10.44 48.90 10.00L48.90 10.00L48.90 10.00Q49.27 9.45 49.34 9.31L49.34 9.31L49.34 9.31Q49.66 8.71 50.32 7.49L50.32 7.49L50.32 7.49Q50.54 7.08 52.04 6.59L52.04 6.59L52.04 6.59Q53.41 6.15 54.04 6.15L54.04 6.15L54.04 6.15Q54.04 6.44 53.75 6.65L53.75 6.65L53.75 6.65Q53.34 6.94 53.26 7.07L53.26 7.07L53.26 7.07Q52.84 7.71 52.84 9.51L52.84 9.51L52.84 9.51Q52.84 10.25 52.98 11.72L52.98 11.72L52.98 11.72Q53.13 13.19 53.13 13.93L53.13 13.93L53.13 13.93Q53.13 14.50 53.09 14.76L53.09 14.76L53.09 14.76Q53.00 15.26 52.70 15.47L52.70 15.47L52.70 15.47Q51.55 16.28 51.27 16.45L51.27 16.45L51.27 16.45Q50.30 17.02 49.69 17.02L49.69 17.02L49.69 17.02Q49.69 16.79 49.85 16.59L49.85 16.59L49.85 16.59Q50.11 16.30 50.18 16.17L50.18 16.17L50.18 16.17Q50.61 15.36 50.61 13.85L50.61 13.85L50.61 13.85Q50.61 12.14 50.46 10.29L50.46 10.29L50.46 10.29Q50.39 10.40 49.46 12.81L49.46 12.81L49.46 12.81Q48.65 14.92 48.43 14.92L48.43 14.92L48.43 14.92Q47.80 14.92 46.40 12.67L46.40 12.67L46.40 12.67Q46.00 12.05 45.70 11.41L45.70 11.41L45.57 11.41L45.57 11.41Q45.57 12.04 45.70 13.31L45.70 13.31L45.70 13.31Q45.84 14.57 45.84 15.20L45.84 15.20L45.84 15.20Q45.84 15.32 44.41 16.27L44.41 16.27L44.41 16.27Q42.99 17.22 42.73 17.22L42.73 17.22L42.73 17.22Q42.73 16.86 43.18 16.09L43.18 16.09L43.18 16.09Q43.68 15.23 43.74 14.91L43.74 14.91L43.74 14.91Q43.89 14.07 43.89 11.20ZM54.82 12.84L54.82 12.84L54.82 12.84Q54.82 11.16 56.07 9.58L56.07 9.58L56.07 9.58Q57.40 7.90 59.05 7.90L59.05 7.90L59.05 7.90Q59.63 7.90 60.03 8.22L60.03 8.22L60.03 8.22Q60.44 8.54 60.44 9.10L60.44 9.10L60.44 9.17L60.44 9.17Q60.16 10.02 59.32 11.13L59.32 11.13L59.32 11.13Q58.58 12.11 58.48 12.11L58.48 12.11L58.17 12.11L58.17 12.11Q58.17 11.87 58.32 11.41L58.32 11.41L58.32 11.41Q58.48 10.95 58.48 10.71L58.48 10.71L58.48 10.71Q58.48 10.30 58.22 10.01L58.22 10.01L58.22 10.01Q57.96 9.72 57.57 9.72L57.57 9.72L57.57 9.72Q56.98 9.72 56.77 10.26L56.77 10.26L56.77 10.26Q56.64 10.60 56.64 11.31L56.64 11.31L56.64 11.31Q56.64 12.17 57.09 12.66L57.09 12.66L57.09 12.66Q57.46 13.05 58.34 13.37L58.34 13.37L58.55 13.38L58.55 13.38Q58.58 13.38 58.76 13.37L58.76 13.37L59.74 12.95L59.74 12.95Q59.79 12.94 59.82 12.94L59.82 12.94L59.82 12.94Q60.03 12.94 60.03 13.37L60.03 13.37L60.03 13.37Q60.03 14.06 58.93 14.87L58.93 14.87L58.93 14.87Q57.88 15.62 57.15 15.62L57.15 15.62L57.15 15.62Q56.39 15.62 56.24 15.47L56.24 15.47L55.12 14.35L55.12 14.35Q54.82 14.06 54.82 12.84ZM61.19 10.95L61.19 10.95L61.19 10.95Q61.19 8.76 62.79 6.94L62.79 6.94L62.79 6.94Q64.46 5.07 66.61 5.07L66.61 5.07L66.61 5.07Q67.47 5.07 67.84 5.45L67.84 5.45L67.84 5.45Q68.22 5.84 68.22 6.69L68.22 6.69L68.22 6.69Q68.22 7.73 67.51 8.75L67.51 8.75L67.51 8.75Q67.02 9.46 65.97 10.40L65.97 10.40L65.97 10.40Q65.86 10.50 65.67 10.53L65.67 10.53L65.49 10.57L65.49 10.57Q65.49 10.28 65.81 9.60L65.81 9.60L65.81 9.60Q66.12 8.93 66.12 8.58L66.12 8.58L66.12 8.58Q66.12 7.92 65.86 7.46L65.86 7.46L65.86 7.46Q65.53 6.90 64.92 6.90L64.92 6.90L64.92 6.90Q64.13 6.90 63.73 8.23L63.73 8.23L63.73 8.23Q63.43 9.18 63.43 10.14L63.43 10.14L63.43 10.14Q63.43 11.16 63.81 12.00L63.81 12.00L63.81 12.00Q64.30 13.08 65.21 13.08L65.21 13.08L65.21 13.08Q65.93 13.08 66.82 12.26L66.82 12.26L66.82 12.26Q67.10 12.01 68.07 10.96L68.07 10.96L68.35 10.96L68.35 11.24L68.35 11.24Q68.35 11.34 66.95 13.90L66.95 13.90L66.95 13.90Q66.09 15.46 64.60 15.46L64.60 15.46L64.60 15.46Q62.87 15.46 61.96 14L61.96 14L61.96 14Q61.19 12.78 61.19 10.95ZM69.20 12.99L69.20 12.99L69.20 12.99Q69.20 11.55 69.95 10.39L69.95 10.39L69.95 10.39Q70.70 9.24 72.02 8.65L72.02 8.65L72.02 8.65Q72.58 8.40 73.54 8.36L73.54 8.36L73.54 8.36Q74.72 8.30 75.10 8.23L75.10 8.23L75.94 7.95L75.94 7.95Q75.98 7.95 76.02 7.94L76.02 7.94L76.10 7.94L76.10 7.94Q76.10 8.20 75.81 8.53L75.81 8.53L75.81 8.53Q75.43 8.93 75.38 9.07L75.38 9.07L75.38 9.07Q75.12 9.60 75.10 9.88L75.10 9.88L75.10 9.88Q75.08 10.00 75.08 10.70L75.08 10.70L75.08 11.55L75.08 11.55Q75.08 12.31 75.45 12.31L75.45 12.31L75.45 12.31Q75.47 12.31 75.52 12.29L75.52 12.29L76.22 11.73L76.22 11.73Q76.26 11.72 76.45 11.69L76.45 11.69L76.45 11.69Q76.45 12.56 75.85 13.87L75.85 13.87L75.85 13.87Q75.15 15.40 74.40 15.40L74.40 15.40L74.40 15.40Q74.20 15.40 74.12 15.37L74.12 15.37L74.12 15.37Q73.08 14.66 72.58 13.13L72.58 13.13L72.58 13.13Q72.20 13.87 71.78 14.57L71.78 14.57L71.78 14.57Q71.22 15.53 70.48 15.53L70.48 15.53L70.48 15.53Q69.20 15.53 69.20 12.99ZM71.16 11.89L71.16 11.89L71.16 11.89Q71.16 12.74 71.65 12.74L71.65 12.74L71.65 12.74Q72.07 12.74 72.56 11.62L72.56 11.62L72.56 11.62Q73.01 10.60 73.01 10.02L73.01 10.02L73.01 10.02Q71.88 10.02 71.52 10.39L71.52 10.39L71.52 10.39Q71.16 10.75 71.16 11.89ZM77.36 15.23L77.36 15.23L77.36 15.16L77.50 14.74L77.50 14.74Q77.53 14.64 77.64 14.18L77.64 14.18L77.64 10.12L77.64 10.12Q77.55 9.84 77.50 9.56L77.50 9.56L77.50 9.28L77.50 9.28Q78.27 8.82 79.18 8.30L79.18 8.30L79.18 8.30Q80.02 7.83 80.30 7.83L80.30 7.83L80.30 8.57L80.44 8.57L80.44 8.57Q80.57 8.58 80.58 8.58L80.58 8.58L81.84 8.44L81.84 8.44Q82.64 8.61 82.96 8.72L82.96 8.72L82.96 9.00L82.96 9.00Q81.54 9.13 80.30 10.68L80.30 10.68L80.16 11.10L80.16 11.10Q80.02 11.31 79.95 11.38L79.95 11.38L79.95 14.04L77.78 15.44L77.64 15.46L77.64 15.46Q77.36 15.46 77.36 15.23ZM83.29 9.46L83.29 9.46L83.29 9.14L83.29 9.14Q84.64 8.54 85.39 7.88L85.39 7.88L86.79 6.62L87.07 6.62L87.07 8.44L87.21 8.58L87.21 8.58Q87.61 8.60 87.71 8.60L87.71 8.60L87.71 8.60Q88.24 8.60 89.29 8.50L89.29 8.50L89.29 8.50Q90.34 8.41 90.87 8.41L90.87 8.41L90.87 8.41Q90.87 8.83 89.96 9.60L89.96 9.60L89.96 9.60Q89.17 10.28 88.75 10.40L88.75 10.40L88.75 10.40Q88.54 10.46 87.91 10.51L87.91 10.51L87.91 10.51Q87.28 10.57 87.07 10.54L87.07 10.54L86.93 10.68L86.93 10.68Q86.90 10.77 86.90 11.52L86.90 11.52L86.90 11.52Q86.90 11.65 86.88 11.91L86.88 11.91L86.88 11.91Q86.86 12.18 86.86 12.31L86.86 12.31L86.86 12.31Q86.86 13.40 87.35 13.40L87.35 13.40L87.35 13.40Q87.57 13.40 87.63 13.34L87.63 13.34L89.03 11.94L89.42 11.94L89.42 11.94Q89.42 13.13 88.59 14.25L88.59 14.25L88.59 14.25Q87.68 15.48 86.58 15.48L86.58 15.48L86.58 15.48Q86.02 15.48 85.76 15.38L85.76 15.38L85.76 15.38Q85.50 15.27 85.11 14.88L85.11 14.88L85.11 14.88Q84.99 14.77 84.73 14.38L84.73 14.38L84.73 14.38Q84.48 13.99 84.48 13.90L84.48 13.90L84.48 9.84L84.48 9.84Q84.48 9.79 84.34 9.68L84.34 9.68L84.34 9.68Q84.20 9.58 84.13 9.56L84.13 9.56L84.13 9.56Q83.68 9.46 83.29 9.46ZM92.16 13.69L92.16 6.55L92.16 6.55Q91.98 6.09 91.88 5.57L91.88 5.57L91.87 5.40L91.87 5.40Q91.87 5.38 91.88 5.29L91.88 5.29L94.40 4.17L94.85 4.17L94.85 4.17Q94.85 4.91 94.69 6.38L94.69 6.38L94.69 6.38Q94.53 7.84 94.53 8.58L94.53 8.58L94.53 8.58Q94.53 8.81 94.53 8.81L94.53 8.81L94.53 8.81Q94.54 9.21 94.54 9.18L94.54 9.18L94.54 9.63L94.68 9.77L94.68 9.77Q95.48 9.16 96.00 8.92L96.00 8.92L96.00 8.92Q96.71 8.58 97.51 8.58L97.51 8.58L97.51 8.58Q97.51 8.93 97.35 9.60L97.35 9.60L97.35 9.60Q97.19 10.26 97.19 10.61L97.19 10.61L97.19 10.61Q97.19 11.37 97.48 12.29L97.48 12.29L97.48 12.29Q97.55 12.52 97.76 12.57L97.76 12.57L97.76 12.57Q97.93 12.50 98.04 12.43L98.04 12.43L98.04 12.43Q98.18 12.31 98.48 12.08L98.48 12.08L98.48 12.08Q98.62 11.97 98.90 11.97L98.90 11.97L98.90 11.97Q98.90 13.20 98.42 14.17L98.42 14.17L98.42 14.17Q97.82 15.40 96.71 15.40L96.71 15.40L96.71 15.40Q96.63 15.40 96.47 15.39L96.47 15.39L96.47 15.39Q96.31 15.37 96.22 15.37L96.22 15.37L96.22 15.37Q95.42 14.78 95.14 13.41L95.14 13.41L95.14 13.41Q94.99 12.66 94.96 11.17L94.96 11.17L94.96 11.17Q94.54 11.68 94.54 12.66L94.54 12.66L94.54 14.25L94.54 14.25Q94.42 15.22 93.46 15.93L93.46 15.93L93.46 15.93Q92.50 16.65 91.50 16.65L91.50 16.65L91.50 16.65Q91.50 16.14 91.83 15.17L91.83 15.17L91.83 15.17Q92.16 14.20 92.16 13.69L92.16 13.69ZM98.64 17.95L98.64 17.95L98.64 17.95Q98.64 17.47 99.08 16.97L99.08 16.97L99.08 16.97Q99.26 16.76 99.72 16.28L99.72 16.28L99.72 16.28Q100.28 15.71 100.34 15.71L100.34 15.71L100.62 15.71L100.62 15.71Q101.64 18.65 103.14 18.65L103.14 18.65L103.14 18.65Q103.68 18.65 103.99 18.17L103.99 18.17L103.99 18.17Q104.26 17.77 104.26 17.18L104.26 17.18L104.26 16.97L104.26 16.97Q104.08 15.29 103.84 13.61L103.84 13.61L103.84 13.61Q103.53 13.82 103.17 14.38L103.17 14.38L103.17 14.38Q102.75 15.02 102.56 15.20L102.56 15.20L102.56 15.20Q102.17 15.58 101.63 15.58L101.63 15.58L101.63 15.58Q101.11 15.58 100.81 14.91L100.81 14.91L100.81 14.91Q100.60 14.42 100.60 13.79L100.60 13.79L100.60 13.79Q100.60 13.31 100.66 12.38L100.66 12.38L100.66 12.38Q100.72 11.45 100.72 10.98L100.72 10.98L100.72 10.98Q100.42 10.98 99.36 11.93L99.36 11.93L99.15 11.93L99.15 11.93Q99.15 10.95 100.73 9.83L100.73 9.83L100.73 9.83Q102.23 8.76 103.32 8.76L103.32 8.76L103.32 8.76Q103.32 9.11 103.08 9.87L103.08 9.87L103.08 9.87Q102.84 10.63 102.84 11.02L102.84 11.02L102.84 11.82L102.84 11.82Q102.83 11.89 102.83 11.83L102.83 11.83L102.83 11.83Q102.87 12.52 103.14 12.63L103.14 12.63L103.14 12.63Q103.68 12.24 103.82 11.33L103.82 11.33L103.82 11.33Q103.98 10.30 104.26 9.97L104.26 9.97L104.26 9.97Q106.43 8.41 107.38 8.41L107.38 8.41L107.38 8.41Q107.38 8.62 107.06 8.99L107.06 8.99L107.06 8.99Q106.68 9.41 106.64 9.55L106.64 9.55L106.64 9.55Q106.34 10.46 106.34 11.49L106.34 11.49L106.34 11.49Q106.34 12.04 106.43 13.11L106.43 13.11L106.43 13.11Q106.51 14.18 106.51 14.73L106.51 14.73L106.51 14.73Q106.51 16.38 106.36 17.25L106.36 17.25L106.36 17.25Q106.30 17.42 106.22 17.53L106.22 17.53L106.22 17.53Q105.27 18.77 104.43 19.33L104.43 19.33L104.43 19.33Q103.33 20.06 102.00 20.06L102.00 20.06L102.00 20.06Q101.07 20.06 99.95 19.49L99.95 19.49L99.95 19.49Q98.64 18.82 98.64 17.95Z"></path></g><!----><g data-v-423bf9ae="" id="83bb7ab1-297b-4eca-88cb-4c57948fa562" transform="matrix(3.860175764033615,0,0,3.860175764033615,140.23718777546216,-16.421744111390325)" stroke="none" fill="#E87967"><path d="M12.289 5.343v19.9L1 13.954V5.343h11.289m1-1H0v10.026l13.289 13.289V4.343zM31 5.343v8.612L19.711 25.243v-19.9H31m1-1H18.711v23.315L32 14.369V4.343z"></path></g><!----></svg>